<?xml version="1.0" encoding="UTF-8" standalone="no"?>
<!-- Created with Inkscape (http://www.inkscape.org/) -->

<svg
   xmlns:dc="http://purl.org/dc/elements/1.1/"
   xmlns:cc="http://creativecommons.org/ns#"
   xmlns:rdf="http://www.w3.org/1999/02/22-rdf-syntax-ns#"
   xmlns:svg="http://www.w3.org/2000/svg"
   xmlns="http://www.w3.org/2000/svg"
   xmlns:xlink="http://www.w3.org/1999/xlink"
   xmlns:sodipodi="http://sodipodi.sourceforge.net/DTD/sodipodi-0.dtd"
   xmlns:inkscape="http://www.inkscape.org/namespaces/inkscape"
   id="svg2"
   sodipodi:version="0.32"
   inkscape:version="0.48.0 r9654"
   width="128"
   height="128"
   version="1.0"
   inkscape:export-filename="D:\Programmieren\cpp\LitSoz3\libwidgets\images\execute_pressed.png"
   inkscape:export-xdpi="11.25"
   inkscape:export-ydpi="11.25"
   sodipodi:docname="execute.svg"
   inkscape:output_extension="org.inkscape.output.svg.inkscape">
  <metadata
     id="metadata7">
    <rdf:RDF>
      <cc:Work
         rdf:about="">
        <dc:format>image/svg+xml</dc:format>
        <dc:type
           rdf:resource="http://purl.org/dc/dcmitype/StillImage" />
        <dc:title></dc:title>
      </cc:Work>
    </rdf:RDF>
  </metadata>
  <defs
     id="defs5">
    <linearGradient
       inkscape:collect="always"
       id="linearGradient5968">
      <stop
         style="stop-color:#000000;stop-opacity:1;"
         offset="0"
         id="stop5970" />
      <stop
         style="stop-color:#000000;stop-opacity:0;"
         offset="1"
         id="stop5972" />
    </linearGradient>
    <linearGradient
       inkscape:collect="always"
       id="linearGradient5880">
      <stop
         style="stop-color:#ffffff;stop-opacity:1;"
         offset="0"
         id="stop5882" />
      <stop
         style="stop-color:#ffffff;stop-opacity:0;"
         offset="1"
         id="stop5884" />
    </linearGradient>
    <linearGradient
       id="linearGradient5515">
      <stop
         style="stop-color:#ffffff;stop-opacity:0;"
         offset="0"
         id="stop5517" />
      <stop
         id="stop5523"
         offset="0.32512316"
         style="stop-color:#ffffff;stop-opacity:1;" />
      <stop
         style="stop-color:#ffffff;stop-opacity:0;"
         offset="1"
         id="stop5519" />
    </linearGradient>
    <linearGradient
       id="linearGradient5267">
      <stop
         style="stop-color:#ffffff;stop-opacity:1;"
         offset="0"
         id="stop5269" />
      <stop
         id="stop5275"
         offset="0.5"
         style="stop-color:#ffffff;stop-opacity:0.50359714;" />
      <stop
         style="stop-color:#ffffff;stop-opacity:1;"
         offset="1"
         id="stop5271" />
    </linearGradient>
    <linearGradient
       id="linearGradient5247">
      <stop
         style="stop-color:#ffffff;stop-opacity:1;"
         offset="0"
         id="stop5249" />
      <stop
         id="stop5255"
         offset="0.5"
         style="stop-color:#ffffff;stop-opacity:0.79136693;" />
      <stop
         style="stop-color:#ffffff;stop-opacity:0;"
         offset="1"
         id="stop5251" />
    </linearGradient>
    <linearGradient
       inkscape:collect="always"
       id="linearGradient5213">
      <stop
         style="stop-color:#ffffff;stop-opacity:1;"
         offset="0"
         id="stop5215" />
      <stop
         style="stop-color:#ffffff;stop-opacity:0;"
         offset="1"
         id="stop5217" />
    </linearGradient>
    <linearGradient
       inkscape:collect="always"
       id="linearGradient5131">
      <stop
         style="stop-color:#767676;stop-opacity:1;"
         offset="0"
         id="stop5133" />
      <stop
         style="stop-color:#767676;stop-opacity:0;"
         offset="1"
         id="stop5135" />
    </linearGradient>
    <linearGradient
       inkscape:collect="always"
       id="linearGradient4993">
      <stop
         style="stop-color:#ffffff;stop-opacity:1;"
         offset="0"
         id="stop4995" />
      <stop
         style="stop-color:#ffffff;stop-opacity:0;"
         offset="1"
         id="stop4997" />
    </linearGradient>
    <linearGradient
       inkscape:collect="always"
       id="linearGradient4913">
      <stop
         style="stop-color:#ffffff;stop-opacity:1;"
         offset="0"
         id="stop4915" />
      <stop
         style="stop-color:#ffffff;stop-opacity:0;"
         offset="1"
         id="stop4917" />
    </linearGradient>
    <linearGradient
       id="linearGradient4893">
      <stop
         style="stop-color:#000000;stop-opacity:0;"
         offset="0"
         id="stop4895" />
      <stop
         id="stop4909"
         offset="0.61052197"
         style="stop-color:#000000;stop-opacity:0;" />
      <stop
         id="stop4905"
         offset="0.68472904"
         style="stop-color:#000000;stop-opacity:0.37769786;" />
      <stop
         style="stop-color:#000000;stop-opacity:0;"
         offset="0.7499575"
         id="stop4907" />
      <stop
         style="stop-color:#000000;stop-opacity:0;"
         offset="1"
         id="stop4897" />
    </linearGradient>
    <linearGradient
       inkscape:collect="always"
       id="linearGradient3285">
      <stop
         style="stop-color:#474747;stop-opacity:1;"
         offset="0"
         id="stop3287" />
      <stop
         style="stop-color:#474747;stop-opacity:0;"
         offset="1"
         id="stop3289" />
    </linearGradient>
    <linearGradient
       id="linearGradient3184">
      <stop
         style="stop-color:#fcfcfc;stop-opacity:1;"
         offset="0"
         id="stop3186" />
      <stop
         style="stop-color:#c0c0c0;stop-opacity:1;"
         offset="1"
         id="stop3188" />
    </linearGradient>
    <linearGradient
       id="linearGradient3152">
      <stop
         style="stop-color:#a2a2a2;stop-opacity:1;"
         offset="0"
         id="stop3154" />
      <stop
         id="stop3166"
         offset="0.27766603"
         style="stop-color:#b7b7b7;stop-opacity:1;" />
      <stop
         id="stop3160"
         offset="0.34831479"
         style="stop-color:#f2f2f2;stop-opacity:1;" />
      <stop
         style="stop-color:#858585;stop-opacity:1;"
         offset="0.69134921"
         id="stop3162" />
      <stop
         id="stop3164"
         offset="0.76705599"
         style="stop-color:#8f8f8f;stop-opacity:1;" />
      <stop
         style="stop-color:#a4a4a4;stop-opacity:1;"
         offset="0.84946543"
         id="stop3182" />
      <stop
         style="stop-color:#757575;stop-opacity:1;"
         offset="0.88352799"
         id="stop3178" />
      <stop
         id="stop3180"
         offset="0.912646"
         style="stop-color:#989898;stop-opacity:1;" />
      <stop
         style="stop-color:#acacac;stop-opacity:1;"
         offset="1"
         id="stop3156" />
    </linearGradient>
    <linearGradient
       id="linearGradient10207">
      <stop
         id="stop10209"
         offset="0"
         style="stop-color:#b4b4b4;stop-opacity:1;" />
      <stop
         style="stop-color:#d1d1d1;stop-opacity:1;"
         offset="0.5"
         id="stop4937" />
      <stop
         id="stop10211"
         offset="1"
         style="stop-color:#fafafa;stop-opacity:1;" />
    </linearGradient>
    <linearGradient
       id="linearGradient3752">
      <stop
         id="stop3754"
         offset="0"
         style="stop-color:#000000;stop-opacity:1;" />
      <stop
         id="stop3756"
         offset="1"
         style="stop-color:#000000;stop-opacity:0;" />
    </linearGradient>
    <radialGradient
       inkscape:collect="always"
       xlink:href="#linearGradient4893"
       id="radialGradient4903"
       cx="-1.2494017"
       cy="23.725372"
       fx="-1.2494017"
       fy="61.40414"
       r="60"
       gradientUnits="userSpaceOnUse"
       gradientTransform="matrix(1.3581356,1.5026073,-1.6333333,1.4762927,-61.051702,-44.648234)" />
    <radialGradient
       inkscape:collect="always"
       xlink:href="#linearGradient4913"
       id="radialGradient4925"
       gradientUnits="userSpaceOnUse"
       cx="-84"
       cy="64"
       fx="-84"
       fy="64"
       r="60" />
    <mask
       maskUnits="userSpaceOnUse"
       id="mask4921">
      <path
         style="opacity:1;fill:url(#radialGradient4925);fill-opacity:1;stroke:none;stroke-width:3;stroke-linecap:round;stroke-linejoin:round;stroke-miterlimit:4;stroke-dasharray:none;stroke-dashoffset:1.08779998;stroke-opacity:1"
         d="M -83.999999,4 C -87.273852,4.0172764 -89.375767,4.1739184 -92.624999,4.625 C -93.586949,4.778184 -94.374999,5.4055494 -94.374999,6.375 L -94.968749,15.8125 C -95.057257,16.767694 -95.725392,17.39683 -96.437499,17.625 C -96.45933,17.631995 -96.478095,17.650033 -96.499999,17.65625 C -100.61684,18.761419 -104.52293,20.378352 -108.125,22.46875 C -108.77655,22.750681 -109.61713,22.733687 -110.3125,22.15625 L -117.40625,15.90625 C -118.09175,15.220752 -119.08648,15.33437 -119.875,15.90625 C -122.49151,17.884842 -124.11032,19.259755 -126.4375,21.5625 C -128.74024,23.889683 -130.11516,25.508484 -132.09375,28.125 C -132.66563,28.913521 -132.77925,29.908252 -132.09375,30.59375 L -125.84375,37.6875 C -125.37003,38.257979 -125.10755,38.996346 -125.375,39.53125 L -125.4375,39.65625 C -127.68302,43.45585 -129.43236,47.592563 -130.5625,51.96875 C -130.57434,51.989388 -130.58117,52.010911 -130.59375,52.03125 C -130.91096,52.544091 -131.44914,52.962834 -132.1875,53.03125 L -141.625,53.625 C -142.59444,53.625 -143.22181,54.41305 -143.375,55.375 C -143.82608,58.624232 -143.98272,60.726147 -144,64 C -143.98272,67.273853 -143.82608,69.375768 -143.375,72.625 C -143.22181,73.586946 -142.59444,74.375 -141.625,74.375 L -132.1875,74.96875 C -131.32015,75.04912 -130.74406,75.615317 -130.46875,76.25 C -129.36552,80.393354 -127.7025,84.314208 -125.59375,87.9375 C -125.22083,88.606007 -125.21212,89.551864 -125.84375,90.3125 L -132.09375,97.40625 C -132.77925,98.091746 -132.66563,99.086477 -132.09375,99.875 C -130.11516,102.49151 -128.74024,104.11031 -126.4375,106.4375 C -124.11032,108.74024 -122.49152,110.11516 -119.875,112.09375 C -119.08648,112.66563 -118.09175,112.77925 -117.40625,112.09375 L -110.3125,105.84375 C -109.55186,105.21212 -108.60601,105.22083 -107.9375,105.59375 L -107.84375,105.5 C -104.31609,107.51717 -100.51556,109.10952 -96.499999,110.1875 L -96.499999,110.34375 C -95.763598,110.55276 -95.05997,111.20302 -94.968749,112.1875 L -94.374999,121.625 C -94.374999,122.59444 -93.586949,123.22181 -92.624999,123.375 C -89.375767,123.82608 -87.273852,123.98272 -83.999999,124 C -80.726146,123.98272 -78.624231,123.82608 -75.374999,123.375 C -74.413053,123.22181 -73.624999,122.59444 -73.624999,121.625 L -73.031249,112.1875 C -72.940025,111.20302 -72.2364,110.55276 -71.499999,110.34375 L -71.499999,110.1875 C -67.484442,109.10952 -63.683904,107.51717 -60.156249,105.5 L -60.062499,105.59375 C -59.393992,105.22083 -58.448137,105.21212 -57.687499,105.84375 L -50.593749,112.09375 C -49.908246,112.77926 -48.913512,112.66564 -48.124999,112.09375 C -45.508489,110.11516 -43.889689,108.74024 -41.562499,106.4375 C -39.259759,104.11031 -37.884839,102.49151 -35.906249,99.875 C -35.334359,99.086487 -35.220739,98.091755 -35.906249,97.40625 L -42.156249,90.3125 C -42.787879,89.55186 -42.779169,88.606007 -42.406249,87.9375 C -40.297499,84.314208 -38.634479,80.393354 -37.531249,76.25 C -37.255939,75.615317 -36.679849,75.04912 -35.812499,74.96875 L -26.374999,74.375 C -25.405549,74.375 -24.778179,73.586946 -24.624999,72.625 C -24.173919,69.375768 -24.017279,67.273853 -23.999999,64 C -24.017279,60.726147 -24.173919,58.624232 -24.624999,55.375 C -24.778179,54.41305 -25.405549,53.625 -26.374999,53.625 L -35.812499,53.03125 C -36.550859,52.962834 -37.089039,52.544091 -37.406249,52.03125 C -37.411879,52.009328 -37.431839,51.99066 -37.437499,51.96875 C -38.567639,47.592563 -40.588709,43.603839 -42.562499,39.65625 L -42.624999,39.53125 C -42.892449,38.996346 -42.629969,38.257977 -42.156249,37.6875 L -35.906249,30.59375 C -35.220739,29.908244 -35.334369,28.913516 -35.906249,28.125 C -37.884839,25.508484 -39.259759,23.88968 -41.562499,21.5625 C -43.889679,19.259753 -45.508479,17.884841 -48.124999,15.90625 C -48.913515,15.334366 -49.908243,15.220745 -50.593749,15.90625 L -57.687499,22.15625 C -58.382875,22.733685 -59.223454,22.750682 -59.874999,22.46875 C -63.477074,20.378352 -67.383162,18.761419 -71.499999,17.65625 C -71.521903,17.650033 -71.540668,17.631995 -71.562499,17.625 C -72.274606,17.39683 -72.942738,16.767694 -73.031249,15.8125 L -73.624999,6.375 C -73.624999,5.4055494 -74.413053,4.778184 -75.374999,4.625 C -78.624231,4.1739184 -80.726146,4.0172764 -83.999999,4 z M -83.999999,48 C -75.168,47.999999 -67.999999,55.168 -67.999999,64 C -68,72.832 -75.168,80 -83.999999,80 C -92.831999,80 -99.999999,72.832 -99.999999,64 C -99.999998,55.167999 -92.831998,48 -83.999999,48 z "
         id="path4923"
         sodipodi:nodetypes="ccccssccccccccsccscccccccccccccccccccccccccccccccccccccccccccccccssssccccccccsscccccsssc" />
    </mask>
    <radialGradient
       inkscape:collect="always"
       xlink:href="#linearGradient4993"
       id="radialGradient5008"
       gradientUnits="userSpaceOnUse"
       gradientTransform="matrix(1,0,0,0.5780636,0,-101.84696)"
       cx="94.818924"
       cy="67.895119"
       fx="94.818924"
       fy="67.895119"
       r="43.734375" />
    <filter
       inkscape:collect="always"
       id="filter5054">
      <feGaussianBlur
         inkscape:collect="always"
         stdDeviation="1.2828183"
         id="feGaussianBlur5056" />
    </filter>
    <clipPath
       clipPathUnits="userSpaceOnUse"
       id="clipPath5073">
      <path
         id="path5075"
         d="M 76.90625,-70.062499 C 73.993994,-66.090403 69.299199,-63.499999 64,-63.499999 C 59.104212,-63.499999 54.716932,-65.68865 51.78125,-69.156249 C 28.641624,-73.441819 25.163605,-55.116541 20.28125,-38.406249 C 20.690082,-37.972249 21.088367,-37.541669 21.5625,-37.062499 C 23.88968,-34.759759 25.50848,-33.384839 28.125,-31.406249 C 28.91352,-30.834369 29.90825,-30.720749 30.59375,-31.406249 L 37.6875,-37.656249 C 38.44814,-38.287879 39.39399,-38.279169 40.0625,-37.906249 L 40.15625,-37.999999 C 43.68391,-35.982829 47.484439,-34.390479 51.5,-33.312499 L 51.5,-33.156249 C 52.236402,-32.947239 52.940029,-32.296979 53.03125,-31.312499 L 53.625,-21.874999 C 53.625001,-20.905559 54.41305,-20.278189 55.375,-20.124999 C 58.624233,-19.673919 60.726147,-19.517279 64,-19.499999 C 67.273854,-19.517279 69.375768,-19.673919 72.625,-20.124999 C 73.586947,-20.278189 74.375,-20.905559 74.375,-21.874999 L 74.96875,-31.312499 C 75.059975,-32.296979 75.763599,-32.947239 76.5,-33.156249 L 76.5,-33.312499 C 80.515558,-34.390479 84.316095,-35.982829 87.84375,-37.999999 L 87.9375,-37.906249 C 88.606008,-38.279169 89.551862,-38.287879 90.3125,-37.656249 L 97.40625,-31.406249 C 98.091754,-30.720739 99.086487,-30.834359 99.875,-31.406249 C 102.49151,-33.384839 104.11031,-34.759759 106.4375,-37.062499 C 106.92292,-37.553069 107.3327,-37.993909 107.75,-38.437499 C 111.67353,-45.524173 82.140773,-81.872038 76.90625,-70.062499 z "
         clip-path="none"
         mask="none"
         style="opacity:0.43122678;fill:url(#radialGradient5077);fill-opacity:1;stroke:none;stroke-width:3;stroke-linecap:round;stroke-linejoin:round;stroke-miterlimit:4;stroke-dasharray:none;stroke-dashoffset:1.08779998;stroke-opacity:1"
         sodipodi:nodetypes="csccccccccccccccccccccccccccc" />
    </clipPath>
    <radialGradient
       inkscape:collect="always"
       xlink:href="#linearGradient4993"
       id="radialGradient5077"
       gradientUnits="userSpaceOnUse"
       gradientTransform="matrix(1,0,0,0.5780636,0,-101.84696)"
       cx="94.818924"
       cy="67.895119"
       fx="94.818924"
       fy="67.895119"
       r="43.734375" />
    <radialGradient
       inkscape:collect="always"
       xlink:href="#linearGradient4993"
       id="radialGradient5081"
       gradientUnits="userSpaceOnUse"
       gradientTransform="matrix(1,0,0,0.5780636,0,-101.84696)"
       cx="94.818924"
       cy="67.895119"
       fx="94.818924"
       fy="67.895119"
       r="43.734375" />
    <filter
       inkscape:collect="always"
       id="filter5162">
      <feGaussianBlur
         inkscape:collect="always"
         stdDeviation="0.60500001"
         id="feGaussianBlur5164" />
    </filter>
    <linearGradient
       inkscape:collect="always"
       xlink:href="#linearGradient10207"
       id="linearGradient5175"
       gradientUnits="userSpaceOnUse"
       gradientTransform="translate(4.0442338,1.2835701)"
       spreadMethod="reflect"
       x1="64"
       y1="81.5"
       x2="64"
       y2="12.678303" />
    <radialGradient
       inkscape:collect="always"
       xlink:href="#linearGradient4893"
       id="radialGradient5177"
       gradientUnits="userSpaceOnUse"
       gradientTransform="matrix(1.3581356,1.5026073,-1.6333333,1.4762927,-61.051702,-44.648234)"
       cx="-1.2494017"
       cy="23.725372"
       fx="-1.2494017"
       fy="61.40414"
       r="60" />
    <radialGradient
       inkscape:collect="always"
       xlink:href="#linearGradient4993"
       id="radialGradient5179"
       gradientUnits="userSpaceOnUse"
       gradientTransform="matrix(1,0,0,0.5780636,0,-101.84696)"
       cx="94.818924"
       cy="67.895119"
       fx="94.818924"
       fy="67.895119"
       r="43.734375" />
    <radialGradient
       inkscape:collect="always"
       xlink:href="#linearGradient4993"
       id="radialGradient5181"
       gradientUnits="userSpaceOnUse"
       gradientTransform="matrix(1,0,0,0.5780636,0,-101.84696)"
       cx="94.818924"
       cy="67.895119"
       fx="94.818924"
       fy="67.895119"
       r="43.734375" />
    <radialGradient
       inkscape:collect="always"
       xlink:href="#linearGradient4913"
       id="radialGradient5183"
       gradientUnits="userSpaceOnUse"
       gradientTransform="translate(152.04423,1.2835701)"
       cx="-84"
       cy="64"
       fx="-84"
       fy="64"
       r="60" />
    <linearGradient
       inkscape:collect="always"
       xlink:href="#linearGradient5131"
       id="linearGradient5185"
       gradientUnits="userSpaceOnUse"
       gradientTransform="translate(-225.98644,40.75048)"
       x1="283.5"
       y1="-52.5"
       x2="282.5"
       y2="128.5" />
    <linearGradient
       inkscape:collect="always"
       xlink:href="#linearGradient5213"
       id="linearGradient5219"
       x1="62.936993"
       y1="3.8495977"
       x2="63.020756"
       y2="9.8520975"
       gradientUnits="userSpaceOnUse"
       gradientTransform="translate(-0.02961322,-0.4585689)" />
    <radialGradient
       inkscape:collect="always"
       xlink:href="#linearGradient5247"
       id="radialGradient5253"
       cx="54.672985"
       cy="6.8499207"
       fx="54.045624"
       fy="6.341433"
       r="1.2890996"
       gradientTransform="matrix(1,0,0,1.9019608,0,-6.1783597)"
       gradientUnits="userSpaceOnUse" />
    <filter
       inkscape:collect="always"
       id="filter5257">
      <feGaussianBlur
         inkscape:collect="always"
         stdDeviation="0.022901589"
         id="feGaussianBlur5259" />
    </filter>
    <radialGradient
       inkscape:collect="always"
       xlink:href="#linearGradient5247"
       id="radialGradient5263"
       gradientUnits="userSpaceOnUse"
       gradientTransform="matrix(1,0,0,1.9019608,0,-6.1783597)"
       cx="54.672985"
       cy="6.8499207"
       fx="54.045624"
       fy="6.341433"
       r="1.2890996" />
    <linearGradient
       inkscape:collect="always"
       xlink:href="#linearGradient5267"
       id="linearGradient5273"
       x1="43.713863"
       y1="11.36219"
       x2="18.252157"
       y2="21.728621"
       gradientUnits="userSpaceOnUse" />
    <filter
       inkscape:collect="always"
       id="filter5309">
      <feGaussianBlur
         inkscape:collect="always"
         stdDeviation="0.093056358"
         id="feGaussianBlur5311" />
    </filter>
    <radialGradient
       inkscape:collect="always"
       xlink:href="#linearGradient5247"
       id="radialGradient5315"
       gradientUnits="userSpaceOnUse"
       gradientTransform="matrix(1,0,0,1.9019608,0,-6.1783597)"
       cx="54.672985"
       cy="6.8499207"
       fx="54.045624"
       fy="6.341433"
       r="1.2890996" />
    <linearGradient
       inkscape:collect="always"
       xlink:href="#linearGradient5267"
       id="linearGradient5337"
       gradientUnits="userSpaceOnUse"
       x1="52.721935"
       y1="17.796528"
       x2="38.62756"
       y2="22.658024" />
    <radialGradient
       inkscape:collect="always"
       xlink:href="#linearGradient5247"
       id="radialGradient5339"
       gradientUnits="userSpaceOnUse"
       gradientTransform="matrix(1,0,0,1.9019608,0,-6.1783597)"
       cx="54.672985"
       cy="6.8499207"
       fx="54.045624"
       fy="6.341433"
       r="1.2890996" />
    <radialGradient
       inkscape:collect="always"
       xlink:href="#linearGradient3285"
       id="radialGradient5343"
       gradientUnits="userSpaceOnUse"
       gradientTransform="matrix(1,0,0,1.9019608,0,-6.1783597)"
       cx="54.672985"
       cy="6.8499207"
       fx="54.672985"
       fy="6.8499207"
       r="1.2890996" />
    <filter
       inkscape:collect="always"
       x="-0.11277929"
       width="1.2255586"
       y="-0.06669141"
       height="1.1333828"
       id="filter5505">
      <feGaussianBlur
         inkscape:collect="always"
         stdDeviation="0.13268874"
         id="feGaussianBlur5507" />
    </filter>
    <radialGradient
       inkscape:collect="always"
       xlink:href="#linearGradient3285"
       id="radialGradient5511"
       gradientUnits="userSpaceOnUse"
       gradientTransform="matrix(1,0,0,1.9019608,0,-6.1783597)"
       cx="54.672985"
       cy="6.8499207"
       fx="54.672985"
       fy="6.8499207"
       r="1.2890996" />
    <linearGradient
       inkscape:collect="always"
       xlink:href="#linearGradient5515"
       id="linearGradient5521"
       x1="114.2963"
       y1="49.937351"
       x2="114.2963"
       y2="61.877388"
       gradientUnits="userSpaceOnUse" />
    <filter
       inkscape:collect="always"
       id="filter5581">
      <feGaussianBlur
         inkscape:collect="always"
         stdDeviation="0.20386597"
         id="feGaussianBlur5583" />
    </filter>
    <linearGradient
       inkscape:collect="always"
       xlink:href="#linearGradient5515"
       id="linearGradient5587"
       gradientUnits="userSpaceOnUse"
       x1="114.2963"
       y1="49.937351"
       x2="114.2963"
       y2="61.877388" />
    <filter
       inkscape:collect="always"
       id="filter5718">
      <feGaussianBlur
         inkscape:collect="always"
         stdDeviation="0.48701799"
         id="feGaussianBlur5720" />
    </filter>
    <filter
       inkscape:collect="always"
       id="filter5836">
      <feGaussianBlur
         inkscape:collect="always"
         stdDeviation="0.12356379"
         id="feGaussianBlur5838" />
    </filter>
    <filter
       inkscape:collect="always"
       id="filter5876">
      <feGaussianBlur
         inkscape:collect="always"
         stdDeviation="0.11909804"
         id="feGaussianBlur5878" />
    </filter>
    <linearGradient
       inkscape:collect="always"
       xlink:href="#linearGradient5880"
       id="linearGradient5886"
       x1="63.993221"
       y1="80.369598"
       x2="63.993221"
       y2="66.131996"
       gradientUnits="userSpaceOnUse" />
    <filter
       inkscape:collect="always"
       id="filter5960">
      <feGaussianBlur
         inkscape:collect="always"
         stdDeviation="0.069666275"
         id="feGaussianBlur5962" />
    </filter>
    <radialGradient
       inkscape:collect="always"
       xlink:href="#linearGradient5968"
       id="radialGradient5974"
       cx="66.917099"
       cy="121.70865"
       fx="66.917099"
       fy="121.70865"
       r="36.032284"
       gradientTransform="matrix(1,0,0,0.1111111,0,108.18546)"
       gradientUnits="userSpaceOnUse" />
    <filter
       inkscape:collect="always"
       x="-0.034698177"
       width="1.0693964"
       y="-0.31228358"
       height="1.6245672"
       id="filter6028">
      <feGaussianBlur
         inkscape:collect="always"
         stdDeviation="1.0418788"
         id="feGaussianBlur6030" />
    </filter>
    <linearGradient
       inkscape:collect="always"
       xlink:href="#linearGradient5880"
       id="linearGradient3118"
       gradientUnits="userSpaceOnUse"
       x1="63.993221"
       y1="80.369598"
       x2="63.993221"
       y2="66.131996" />
    <filter
       id="filter3888"
       inkscape:label="Sepia"
       inkscape:menu="Color"
       inkscape:menu-tooltip="Render in warm sepia tones"
       x="0"
       y="0"
       width="1"
       height="1"
       color-interpolation-filters="sRGB">
      <feColorMatrix
         id="feColorMatrix3890"
         type="hueRotate"
         values="0" />
      <feColorMatrix
         id="feColorMatrix3892"
         type="saturate"
         values="1" />
      <feColorMatrix
         id="feColorMatrix3894"
         type="matrix"
         values="2 -1 0 0 0 0 2 -1 0 0 -1 0 2 0 0 0 0 0 1 0 "
         result="fbSourceGraphic" />
      <feColorMatrix
         result="fbSourceGraphicAlpha"
         in="fbSourceGraphic"
         values="0 0 0 -1 0 0 0 0 -1 0 0 0 0 -1 0 0 0 0 1 0"
         id="feColorMatrix3896" />
      <feColorMatrix
         id="feColorMatrix3898"
         values="0"
         in="fbSourceGraphic"
         type="saturate"
         result="result2" />
      <feFlood
         id="feFlood3900"
         flood-color="rgb(160,67,0)"
         flood-opacity="1"
         result="result1" />
      <feBlend
         id="feBlend3902"
         in2="result1"
         mode="multiply"
         in="result2"
         result="result5" />
      <feBlend
         id="feBlend3904"
         in2="result2"
         mode="screen"
         result="result3" />
      <feComposite
         id="feComposite3906"
         in2="result2"
         result="result4"
         operator="arithmetic"
         k2="1" />
      <feComposite
         id="feComposite3908"
         in2="fbSourceGraphicAlpha"
         operator="in"
         in="result4" />
    </filter>
    <linearGradient
       inkscape:collect="always"
       xlink:href="#linearGradient10207"
       id="linearGradient3917"
       gradientUnits="userSpaceOnUse"
       gradientTransform="translate(4.0442338,1.2835701)"
       spreadMethod="reflect"
       x1="64"
       y1="81.5"
       x2="64"
       y2="12.678303" />
    <radialGradient
       inkscape:collect="always"
       xlink:href="#linearGradient4893"
       id="radialGradient3919"
       gradientUnits="userSpaceOnUse"
       gradientTransform="matrix(1.3581356,1.5026073,-1.6333333,1.4762927,-61.051702,-44.648234)"
       cx="-1.2494017"
       cy="23.725372"
       fx="-1.2494017"
       fy="61.40414"
       r="60" />
    <radialGradient
       inkscape:collect="always"
       xlink:href="#linearGradient4993"
       id="radialGradient3921"
       gradientUnits="userSpaceOnUse"
       gradientTransform="matrix(1,0,0,0.5780636,0,-101.84696)"
       cx="94.818924"
       cy="67.895119"
       fx="94.818924"
       fy="67.895119"
       r="43.734375" />
    <radialGradient
       inkscape:collect="always"
       xlink:href="#linearGradient4993"
       id="radialGradient3923"
       gradientUnits="userSpaceOnUse"
       gradientTransform="matrix(1,0,0,0.5780636,0,-101.84696)"
       cx="94.818924"
       cy="67.895119"
       fx="94.818924"
       fy="67.895119"
       r="43.734375" />
    <radialGradient
       inkscape:collect="always"
       xlink:href="#linearGradient4913"
       id="radialGradient3925"
       gradientUnits="userSpaceOnUse"
       gradientTransform="translate(152.04423,1.2835701)"
       cx="-84"
       cy="64"
       fx="-84"
       fy="64"
       r="60" />
    <linearGradient
       inkscape:collect="always"
       xlink:href="#linearGradient5131"
       id="linearGradient3927"
       gradientUnits="userSpaceOnUse"
       gradientTransform="translate(-225.98644,40.75048)"
       x1="283.5"
       y1="-52.5"
       x2="282.5"
       y2="128.5" />
    <filter
       id="filter3962"
       inkscape:label="Inner Glow"
       inkscape:menu="Shadows and Glows"
       inkscape:menu-tooltip="Adds a colorizable glow inside"
       color-interpolation-filters="sRGB">
      <feGaussianBlur
         id="feGaussianBlur3964"
         stdDeviation="5"
         result="result91" />
      <feComposite
         id="feComposite3966"
         in2="result91"
         in="SourceGraphic"
         operator="over"
         result="fbSourceGraphic" />
      <feColorMatrix
         result="fbSourceGraphicAlpha"
         in="fbSourceGraphic"
         values="0 0 0 -1 0 0 0 0 -1 0 0 0 0 -1 0 0 0 0 1 0"
         id="feColorMatrix3968" />
      <feGaussianBlur
         id="feGaussianBlur3970"
         stdDeviation="10"
         result="result8"
         in="fbSourceGraphic" />
      <feComposite
         id="feComposite3972"
         in2="result8"
         result="result6"
         in="fbSourceGraphic"
         operator="in" />
      <feComposite
         id="feComposite3974"
         in2="result6"
         operator="in"
         result="result11" />
      <feFlood
         id="feFlood3976"
         result="result10"
         in="result11"
         flood-opacity="1"
         flood-color="rgb(255,222,85)" />
      <feBlend
         id="feBlend3978"
         in2="result10"
         mode="normal"
         in="result11"
         result="result12" />
      <feComposite
         id="feComposite3980"
         in2="fbSourceGraphic"
         result="result2"
         operator="in"
         in="result12" />
    </filter>
  </defs>
  <sodipodi:namedview
     inkscape:window-height="837"
     inkscape:window-width="1270"
     inkscape:pageshadow="2"
     inkscape:pageopacity="0.0"
     guidetolerance="10.0"
     gridtolerance="10.0"
     objecttolerance="10.0"
     borderopacity="1.0"
     bordercolor="#666666"
     pagecolor="#ffffff"
     id="base"
     width="128px"
     height="128px"
     showgrid="false"
     inkscape:zoom="2.4726563"
     inkscape:cx="6.4507304"
     inkscape:cy="21.415505"
     inkscape:window-x="306"
     inkscape:window-y="118"
     inkscape:current-layer="svg2"
     inkscape:window-maximized="0">
    <inkscape:grid
       id="GridFromPre046Settings"
       type="xygrid"
       originx="0px"
       originy="0px"
       spacingx="4px"
       spacingy="4px"
       color="#0000ff"
       empcolor="#0000ff"
       opacity="0.2"
       empopacity="0.4"
       empspacing="2" />
  </sodipodi:namedview>
  <g
     id="g3929"
     style="filter:url(#filter3962)">
    <path
       transform="matrix(0.79763164,0,0,0.79763164,9.7195601,11.112216)"
       mask="none"
       style="fill:#363636;fill-opacity:1;stroke:#767676;stroke-width:2;stroke-linecap:round;stroke-linejoin:round;stroke-miterlimit:4;stroke-opacity:1;stroke-dasharray:none;stroke-dashoffset:1.08779998;filter:url(#filter3888)"
       d="m 68.044235,5.2835701 c -3.27385,0.01728 -5.37577,0.17392 -8.625,0.625 -0.96195,0.15318 -1.75,0.78055 -1.75,1.75 l -0.59375,9.4374999 c -0.08851,0.95519 -0.75664,1.58433 -1.46875,1.8125 -0.02183,0.007 -0.0406,0.02503 -0.0625,0.03125 -4.11684,1.10517 -8.02293,2.7221 -11.625,4.8125 -0.65155,0.28193 -1.49213,0.26494 -2.1875,-0.3125 l -7.09375,-6.25 c -0.6855,-0.6855 -1.68023,-0.57188 -2.46875,0 -2.61651,1.97859 -4.23532,3.3535 -6.5625,5.65625 -2.30274,2.32718 -3.67766,3.94598 -5.65625,6.5625 -0.57188,0.78852 -0.6855,1.78325 0,2.46875 l 6.25,7.09375 c 0.47372,0.57048 0.7362,1.30885 0.46875,1.84375 l -0.0625,0.125 c -2.24552,3.7996 -3.99486,7.93631 -5.125,12.3125 -0.01184,0.02064 -0.01867,0.04216 -0.03125,0.0625 -0.31721,0.51284 -0.85539,0.93158 -1.59375,1 l -9.4375,0.59375 c -0.9694404,0 -1.5968104,0.78805 -1.7500004,1.75 -0.45108,3.24923 -0.60772,5.35115 -0.625,8.625 0.01728,3.27385 0.17392,5.37577 0.625,8.625 0.15319,0.96195 0.78056,1.75 1.7500004,1.75 l 9.4375,0.59375 c 0.86735,0.08037 1.44344,0.64657 1.71875,1.28125 1.10323,4.14335 2.76625,8.06421 4.875,11.6875 0.37292,0.66851 0.38163,1.61436 -0.25,2.375 l -6.25,7.09375 c -0.6855,0.6855 -0.57188,1.68023 0,2.46875 1.97859,2.61651 3.35351,4.23531 5.65625,6.5625 2.32718,2.30274 3.94598,3.67766 6.5625,5.65625 0.78852,0.57188 1.78325,0.6855 2.46875,0 l 7.09375,-6.25 c 0.76064,-0.63163 1.70649,-0.62292 2.375,-0.25 l 0.09375,-0.0937 c 3.52766,2.01717 7.32819,3.60952 11.34375,4.6875 l 0,0.15625 c 0.7364,0.20901 1.44003,0.85927 1.53125,1.84375 l 0.59375,9.4375 c 0,0.96944 0.78805,1.59681 1.75,1.75 3.24923,0.45108 5.35115,0.60772 8.625,0.625 3.27385,-0.0173 5.37577,-0.17392 8.625,-0.625 0.96195,-0.15319 1.75,-0.78056 1.75,-1.75 l 0.59375,-9.4375 c 0.09122,-0.98448 0.79485,-1.63474 1.53125,-1.84375 l 0,-0.15625 c 4.01556,-1.07798 7.8161,-2.67033 11.34375,-4.6875 l 0.09375,0.0937 c 0.66851,-0.37292 1.61436,-0.38163 2.375,0.25 l 7.093745,6.25 c 0.6855,0.68551 1.68024,0.57189 2.46875,0 2.61651,-1.97859 4.23531,-3.35351 6.5625,-5.65625 2.30274,-2.32719 3.67766,-3.94599 5.65625,-6.5625 0.57189,-0.78851 0.68551,-1.78324 0,-2.46875 l -6.25,-7.09375 c -0.63163,-0.76064 -0.62292,-1.70649 -0.25,-2.375 2.10875,-3.62329 3.77177,-7.54415 4.875,-11.6875 0.27531,-0.63468 0.8514,-1.20088 1.71875,-1.28125 l 9.4375,-0.59375 c 0.96945,0 1.59682,-0.78805 1.75,-1.75 0.45108,-3.24923 0.60772,-5.35115 0.625,-8.625 -0.0173,-3.27385 -0.17392,-5.37577 -0.625,-8.625 -0.15318,-0.96195 -0.78055,-1.75 -1.75,-1.75 l -9.4375,-0.59375 c -0.73836,-0.06842 -1.27654,-0.48716 -1.59375,-1 -0.006,-0.02192 -0.0256,-0.04059 -0.0312,-0.0625 -1.13014,-4.37619 -3.15121,-8.36491 -5.125,-12.3125 l -0.0625,-0.125 c -0.26745,-0.5349 -0.005,-1.27327 0.46875,-1.84375 l 6.25,-7.09375 c 0.68551,-0.68551 0.57188,-1.68023 0,-2.46875 -1.97859,-2.61652 -3.35351,-4.23532 -5.65625,-6.5625 -2.32718,-2.30275 -3.94598,-3.67766 -6.5625,-5.65625 -0.78852,-0.57188 -1.78324,-0.68551 -2.46875,0 l -7.093745,6.25 c -0.69538,0.57744 -1.53595,0.59443 -2.1875,0.3125 -3.60207,-2.0904 -7.50816,-3.70733 -11.625,-4.8125 -0.0219,-0.0062 -0.04067,-0.02425 -0.0625,-0.03125 -0.71211,-0.22817 -1.38024,-0.85731 -1.46875,-1.8125 l -0.59375,-9.4374999 c 0,-0.96945 -0.78805,-1.59682 -1.75,-1.75 -3.24923,-0.45108 -5.35115,-0.60772 -8.625,-0.625 z m 0,43.9999999 c 8.832,0 16,7.168 16,16 0,8.832 -7.168,16 -16,16 -8.832,0 -16,-7.168 -16,-16 0,-8.832 7.168,-16 16,-16 z"
       id="path5091"
       sodipodi:nodetypes="ccccssccccccccsccscccccccccccccccccccccccccccccccccccccccccccccccssssccccccccsscccccsssc"
       inkscape:connector-curvature="0" />
    <path
       transform="matrix(0.79763164,0,0,0.79763164,9.7195601,11.112216)"
       sodipodi:nodetypes="ccccssccccccccsccscccccccccccccccccccccccccccccccccccccccccccccccssssccccccccsscccccsssc"
       id="path3139"
       d="m 68.044234,5.2835701 c -3.273853,0.01728 -5.375768,0.17392 -8.625,0.625 -0.96195,0.15318 -1.75,0.78055 -1.75,1.75 l -0.59375,9.4374999 c -0.08851,0.95519 -0.756643,1.58433 -1.46875,1.8125 -0.02183,0.007 -0.0406,0.02503 -0.0625,0.03125 -4.116837,1.10517 -8.022926,2.7221 -11.625,4.8125 -0.651546,0.28193 -1.492126,0.26494 -2.1875,-0.3125 l -7.09375,-6.25 c -0.685498,-0.6855 -1.680227,-0.57188 -2.46875,0 -2.616515,1.97859 -4.235317,3.35351 -6.5625,5.65625 -2.302745,2.32718 -3.677658,3.94598 -5.65625,6.5625 -0.571877,0.78852 -0.685498,1.78325 0,2.46875 l 6.25,7.09375 c 0.473721,0.57048 0.736202,1.30885 0.46875,1.84375 l -0.0625,0.125 c -2.245518,3.7996 -3.99486,7.936314 -5.125,12.312501 -0.01184,0.02064 -0.01867,0.04216 -0.03125,0.0625 -0.317209,0.512841 -0.85539,0.931584 -1.59375,1 l -9.4375,0.59375 c -0.9694402,0 -1.5968102,0.78805 -1.7500002,1.75 -0.45108,3.249232 -0.60772,5.351147 -0.625,8.625 0.01728,3.273853 0.17392,5.375768 0.625,8.625 0.15319,0.961946 0.78056,1.75 1.7500002,1.75 l 9.4375,0.59375 c 0.867346,0.08037 1.443436,0.646567 1.71875,1.28125 1.10323,4.143354 2.766253,8.064208 4.875,11.6875 0.372921,0.668507 0.38163,1.614364 -0.25,2.375 l -6.25,7.09375 c -0.685498,0.685496 -0.57188,1.680229 0,2.468749 1.978592,2.61651 3.353505,4.23531 5.65625,6.5625 2.327183,2.30274 3.945984,3.67766 6.5625,5.65625 0.788521,0.57188 1.783252,0.6855 2.46875,0 l 7.09375,-6.25 c 0.760638,-0.63163 1.706493,-0.62292 2.375,-0.25 l 0.09375,-0.0937 c 3.527655,2.01717 7.328193,3.60952 11.34375,4.6875 l 0,0.15625 c 0.736401,0.20901 1.440029,0.85927 1.53125,1.84375 l 0.59375,9.4375 c 0,0.96944 0.78805,1.59681 1.75,1.75 3.249232,0.45108 5.351147,0.60772 8.625,0.625 3.273853,-0.0173 5.375768,-0.17392 8.625,-0.625 0.961946,-0.15319 1.75,-0.78056 1.75,-1.75 l 0.59375,-9.4375 c 0.09122,-0.98448 0.794849,-1.63474 1.53125,-1.84375 l 0,-0.15625 c 4.015557,-1.07798 7.816095,-2.67033 11.34375,-4.6875 l 0.09375,0.0937 c 0.668507,-0.37292 1.614362,-0.38163 2.375,0.25 l 7.093746,6.25 c 0.68551,0.68551 1.68024,0.57189 2.46875,0 2.61651,-1.97859 4.23531,-3.35351 6.5625,-5.65625 2.30274,-2.32719 3.67766,-3.94599 5.65625,-6.5625 0.57189,-0.78851 0.68551,-1.783244 0,-2.468749 l -6.25,-7.09375 c -0.63163,-0.76064 -0.62292,-1.706493 -0.25,-2.375 2.10875,-3.623292 3.77177,-7.544146 4.875,-11.6875 0.27531,-0.634683 0.8514,-1.20088 1.71875,-1.28125 l 9.4375,-0.59375 c 0.96945,0 1.59682,-0.788054 1.75,-1.75 0.45108,-3.249232 0.60772,-5.351147 0.625,-8.625 -0.0173,-3.273853 -0.17392,-5.375768 -0.625,-8.625 -0.15318,-0.96195 -0.78055,-1.75 -1.75,-1.75 l -9.4375,-0.59375 c -0.73836,-0.06842 -1.27654,-0.487159 -1.59375,-1 -0.006,-0.02192 -0.0256,-0.04059 -0.0312,-0.0625 -1.13014,-4.376187 -3.15121,-8.364911 -5.125,-12.312501 l -0.0625,-0.125 c -0.26745,-0.5349 -0.005,-1.27327 0.46875,-1.84375 l 6.25,-7.09375 c 0.68551,-0.68551 0.57188,-1.68023 0,-2.46875 -1.97859,-2.61652 -3.35351,-4.23532 -5.65625,-6.5625 -2.32718,-2.30275 -3.94598,-3.67766 -6.5625,-5.65625 -0.78851,-0.57188 -1.78324,-0.6855 -2.46875,0 l -7.093746,6.25 c -0.695376,0.57744 -1.535955,0.59443 -2.1875,0.3125 -3.602075,-2.0904 -7.508163,-3.70733 -11.625,-4.8125 -0.0219,-0.0062 -0.04067,-0.02425 -0.0625,-0.03125 -0.712107,-0.22817 -1.380239,-0.85731 -1.46875,-1.8125 l -0.59375,-9.4374999 c 0,-0.96945 -0.788054,-1.59682 -1.75,-1.75 -3.249232,-0.45108 -5.351147,-0.60772 -8.625,-0.625 z m 0,44.0000009 c 8.831999,-1e-6 16,7.168 16,16 -10e-7,8.832 -7.168001,16 -16,16 -8.832,0 -16,-7.168 -16,-16 10e-7,-8.832001 7.168001,-16 16,-16 z"
       style="fill:url(#linearGradient3917);fill-opacity:1;stroke:none;filter:url(#filter3888)"
       inkscape:connector-curvature="0" />
    <path
       transform="matrix(0.79763164,0,0,0.79763164,130.99485,12.136032)"
       mask="url(#mask4921)"
       style="fill:url(#radialGradient3919);fill-opacity:1;stroke:none;filter:url(#filter3888)"
       d="m -83.999999,4 c -3.273853,0.017276 -5.375768,0.1739184 -8.625,0.625 -0.96195,0.153184 -1.75,0.7805494 -1.75,1.75 l -0.59375,9.4375 c -0.08851,0.955194 -0.756643,1.58433 -1.46875,1.8125 -0.02183,0.007 -0.0406,0.02503 -0.0625,0.03125 -4.116841,1.105169 -8.022931,2.722102 -11.625001,4.8125 -0.65155,0.281931 -1.49213,0.264937 -2.1875,-0.3125 l -7.09375,-6.25 c -0.6855,-0.685498 -1.68023,-0.57188 -2.46875,0 -2.61651,1.978592 -4.23532,3.353505 -6.5625,5.65625 -2.30274,2.327183 -3.67766,3.945984 -5.65625,6.5625 -0.57188,0.788521 -0.6855,1.783252 0,2.46875 l 6.25,7.09375 c 0.47372,0.570479 0.7362,1.308846 0.46875,1.84375 l -0.0625,0.125 c -2.24552,3.7996 -3.99486,7.936313 -5.125,12.3125 -0.0118,0.02064 -0.0187,0.04216 -0.0312,0.0625 -0.31721,0.512841 -0.85539,0.931584 -1.59375,1 l -9.4375,0.59375 c -0.96944,0 -1.59681,0.78805 -1.75,1.75 -0.45108,3.249232 -0.60772,5.351147 -0.625,8.625 0.0173,3.273853 0.17392,5.375768 0.625,8.625 0.15319,0.961946 0.78056,1.75 1.75,1.75 l 9.4375,0.59375 c 0.86735,0.08037 1.44344,0.646567 1.71875,1.28125 1.10323,4.143354 2.76625,8.064208 4.875,11.6875 0.37292,0.668507 0.38163,1.614364 -0.25,2.375 l -6.25,7.09375 c -0.6855,0.685496 -0.57188,1.680227 0,2.46875 1.97859,2.61651 3.35351,4.23531 5.65625,6.5625 2.32718,2.30274 3.94598,3.67766 6.5625,5.65625 0.78852,0.57188 1.78325,0.6855 2.46875,0 l 7.09375,-6.25 c 0.76064,-0.63163 1.70649,-0.62292 2.375,-0.25 l 0.0937,-0.0937 c 3.52766,2.01717 7.32819,3.60952 11.343751,4.6875 l 0,0.15625 c 0.736401,0.20901 1.440029,0.85927 1.53125,1.84375 l 0.59375,9.4375 c 0,0.96944 0.78805,1.59681 1.75,1.75 3.249232,0.45108 5.351147,0.60772 8.625,0.625 3.273853,-0.0173 5.375768,-0.17392 8.625,-0.625 0.961946,-0.15319 1.75,-0.78056 1.75,-1.75 l 0.59375,-9.4375 c 0.09122,-0.98448 0.794849,-1.63474 1.53125,-1.84375 l 0,-0.15625 c 4.015557,-1.07798 7.816095,-2.67033 11.34375,-4.6875 l 0.09375,0.0937 c 0.668507,-0.37292 1.614362,-0.38163 2.375,0.25 l 7.09375,6.25 c 0.685503,0.68551 1.680237,0.57189 2.46875,0 2.61651,-1.97859 4.23531,-3.35351 6.5625,-5.65625 2.30274,-2.32719 3.67766,-3.94599 5.65625,-6.5625 0.57189,-0.788513 0.68551,-1.783245 0,-2.46875 l -6.25,-7.09375 c -0.63163,-0.76064 -0.62292,-1.706493 -0.25,-2.375 2.10875,-3.623292 3.77177,-7.544146 4.875,-11.6875 0.27531,-0.634683 0.8514,-1.20088 1.71875,-1.28125 l 9.4375,-0.59375 c 0.96945,0 1.59682,-0.788054 1.75,-1.75 0.45108,-3.249232 0.60772,-5.351147 0.625,-8.625 -0.01728,-3.273853 -0.17392,-5.375768 -0.625,-8.625 -0.15318,-0.96195 -0.78055,-1.75 -1.75,-1.75 l -9.4375,-0.59375 c -0.73836,-0.06842 -1.27654,-0.487159 -1.59375,-1 -0.0056,-0.02192 -0.02559,-0.04059 -0.03125,-0.0625 -1.13014,-4.376187 -3.15121,-8.364911 -5.125,-12.3125 l -0.0625,-0.125 c -0.26745,-0.534904 -0.005,-1.273273 0.46875,-1.84375 l 6.25,-7.09375 c 0.68551,-0.685506 0.57188,-1.680234 0,-2.46875 -1.97859,-2.616516 -3.35351,-4.23532 -5.65625,-6.5625 -2.32718,-2.302747 -3.94598,-3.677659 -6.5625,-5.65625 -0.788516,-0.571884 -1.783244,-0.685505 -2.46875,0 l -7.09375,6.25 c -0.695376,0.577435 -1.535955,0.594432 -2.1875,0.3125 -3.602075,-2.090398 -7.508163,-3.707331 -11.625,-4.8125 -0.0219,-0.0062 -0.04067,-0.02426 -0.0625,-0.03125 -0.712107,-0.22817 -1.380239,-0.857306 -1.46875,-1.8125 l -0.59375,-9.4375 c 0,-0.9694506 -0.788054,-1.596816 -1.75,-1.75 -3.249232,-0.4510816 -5.351147,-0.6077236 -8.625,-0.625 z m 0,44 c 8.831999,-10e-7 16,7.168 16,16 -10e-7,8.832 -7.168001,16 -16,16 -8.832,0 -16,-7.168 -16,-16 10e-7,-8.832001 7.168001,-16 16,-16 z"
       id="path4891"
       sodipodi:nodetypes="ccccssccccccccsccscccccccccccccccccccccccccccccccccccccccccccccccssssccccccccsscccccsssc"
       inkscape:connector-curvature="0" />
    <path
       transform="matrix(0.79763164,0,0,0.79763164,12.945369,126.59617)"
       id="path4953"
       d="m 76.90625,-70.062499 c -2.912256,3.972096 -7.607051,6.5625 -12.90625,6.5625 -4.895788,0 -9.283068,-2.188651 -12.21875,-5.65625 l -31.5,30.75 c 0.408832,0.434 0.807117,0.86458 1.28125,1.34375 2.32718,2.30274 3.94598,3.67766 6.5625,5.65625 0.78852,0.57188 1.78325,0.6855 2.46875,0 l 7.09375,-6.25 c 0.76064,-0.63163 1.70649,-0.62292 2.375,-0.25 l 0.09375,-0.09375 c 3.52766,2.01717 7.328189,3.60952 11.34375,4.6875 l 0,0.15625 c 0.736402,0.20901 1.440029,0.85927 1.53125,1.84375 l 0.59375,9.4375 c 10e-7,0.96944 0.78805,1.59681 1.75,1.75 3.249233,0.45108 5.351147,0.60772 8.625,0.625 3.273854,-0.01728 5.375768,-0.17392 8.625,-0.625 0.961947,-0.15319 1.75,-0.78056 1.75,-1.75 l 0.59375,-9.4375 c 0.09122,-0.98448 0.794849,-1.63474 1.53125,-1.84375 l 0,-0.15625 c 4.015558,-1.07798 7.816095,-2.67033 11.34375,-4.6875 l 0.09375,0.09375 c 0.668508,-0.37292 1.614362,-0.38163 2.375,0.25 l 7.09375,6.25 c 0.685504,0.68551 1.680237,0.57189 2.46875,0 2.61651,-1.97859 4.23531,-3.35351 6.5625,-5.65625 0.48542,-0.49057 0.8952,-0.93141 1.3125,-1.375 l -30.84375,-31.625 z"
       clip-path="url(#clipPath5073)"
       mask="none"
       style="opacity:0.43122678;fill:url(#radialGradient3921);fill-opacity:1;stroke:none;filter:url(#filter5054)"
       inkscape:connector-curvature="0" />
    <path
       transform="matrix(-0.79763164,0,0,-0.79763164,115.03189,-0.22051839)"
       style="opacity:0.43122678;fill:url(#radialGradient3923);fill-opacity:1;stroke:none;filter:url(#filter5054)"
       mask="none"
       clip-path="url(#clipPath5073)"
       d="m 76.90625,-70.062499 c -2.912256,3.972096 -7.607051,6.5625 -12.90625,6.5625 -4.895788,0 -9.283068,-2.188651 -12.21875,-5.65625 l -31.5,30.75 c 0.408832,0.434 0.807117,0.86458 1.28125,1.34375 2.32718,2.30274 3.94598,3.67766 6.5625,5.65625 0.78852,0.57188 1.78325,0.6855 2.46875,0 l 7.09375,-6.25 c 0.76064,-0.63163 1.70649,-0.62292 2.375,-0.25 l 0.09375,-0.09375 c 3.52766,2.01717 7.328189,3.60952 11.34375,4.6875 l 0,0.15625 c 0.736402,0.20901 1.440029,0.85927 1.53125,1.84375 l 0.59375,9.4375 c 10e-7,0.96944 0.78805,1.59681 1.75,1.75 3.249233,0.45108 5.351147,0.60772 8.625,0.625 3.273854,-0.01728 5.375768,-0.17392 8.625,-0.625 0.961947,-0.15319 1.75,-0.78056 1.75,-1.75 l 0.59375,-9.4375 c 0.09122,-0.98448 0.794849,-1.63474 1.53125,-1.84375 l 0,-0.15625 c 4.015558,-1.07798 7.816095,-2.67033 11.34375,-4.6875 l 0.09375,0.09375 c 0.668508,-0.37292 1.614362,-0.38163 2.375,0.25 l 7.09375,6.25 c 0.685504,0.68551 1.680237,0.57189 2.46875,0 2.61651,-1.97859 4.23531,-3.35351 6.5625,-5.65625 0.48542,-0.49057 0.8952,-0.93141 1.3125,-1.375 l -30.84375,-31.625 z"
       id="path5079"
       inkscape:connector-curvature="0" />
    <path
       transform="matrix(0.79763164,0,0,0.79763164,9.7195601,11.112216)"
       style="opacity:0.73234199;fill:url(#radialGradient3925);fill-opacity:1;stroke:none;filter:url(#filter3888)"
       d="m 68.044234,5.2835701 c -3.27385,0.01728 -5.37577,0.17392 -8.625,0.625 -0.96195,0.15318 -1.75,0.78055 -1.75,1.75 l -0.59375,9.4374999 c -0.08851,0.95519 -0.75664,1.58433 -1.46875,1.8125 -0.02183,0.007 -0.0406,0.02503 -0.0625,0.03125 -4.11684,1.10517 -8.02293,2.7221 -11.625,4.8125 -0.65155,0.28193 -1.49213,0.26494 -2.1875,-0.3125 l -7.09375,-6.25 c -0.6855,-0.6855 -1.68023,-0.57188 -2.46875,0 -2.61651,1.97859 -4.23532,3.3535 -6.5625,5.65625 -2.30274,2.32718 -3.67766,3.94598 -5.65625,6.5625 -0.57188,0.78852 -0.6855,1.78325 0,2.46875 l 6.25,7.09375 c 0.47372,0.57048 0.7362,1.30885 0.46875,1.84375 l -0.0625,0.125 c -2.24552,3.7996 -3.99486,7.936313 -5.125,12.3125 -0.01184,0.02064 -0.01867,0.04216 -0.03125,0.0625 -0.31721,0.512841 -0.85539,0.931584 -1.59375,1 l -9.4375,0.59375 c -0.9694397,0 -1.5968097,0.78805 -1.7499997,1.75 -0.45108,3.249232 -0.60772,5.351147 -0.625,8.625 0.01728,3.273853 0.17392,5.375768 0.625,8.625 0.15319,0.961946 0.78056,1.75 1.7499997,1.75 l 9.4375,0.59375 c 0.86735,0.08037 1.44344,0.646567 1.71875,1.28125 1.10323,4.143354 2.76625,8.064208 4.875,11.6875 0.37292,0.668507 0.38163,1.614364 -0.25,2.375 l -6.25,7.09375 c -0.6855,0.685496 -0.57188,1.68023 0,2.46875 1.97859,2.61651 3.35351,4.23531 5.65625,6.5625 2.32718,2.30274 3.94598,3.67766 6.5625,5.65625 0.78852,0.57188 1.78325,0.6855 2.46875,0 l 7.09375,-6.25 c 0.76064,-0.63163 1.70649,-0.62292 2.375,-0.25 l 0.09375,-0.0937 c 3.52766,2.01717 7.32819,3.60952 11.34375,4.6875 l 0,0.15625 c 0.7364,0.20901 1.44003,0.85927 1.53125,1.84375 l 0.59375,9.4375 c 0,0.96944 0.78805,1.59681 1.75,1.75 3.24923,0.45108 5.35115,0.60772 8.625,0.625 3.27385,-0.0173 5.37577,-0.17392 8.625,-0.625 0.96195,-0.15319 1.75,-0.78056 1.75,-1.75 l 0.59375,-9.4375 c 0.09122,-0.98448 0.79485,-1.63474 1.53125,-1.84375 l 0,-0.15625 c 4.01556,-1.07798 7.8161,-2.67033 11.34375,-4.6875 l 0.09375,0.0937 c 0.66851,-0.37292 1.61436,-0.38163 2.375,0.25 l 7.093746,6.25 c 0.6855,0.68551 1.68024,0.57189 2.46875,0 2.61651,-1.97859 4.23531,-3.35351 6.5625,-5.65625 2.30274,-2.32719 3.67766,-3.94599 5.65625,-6.5625 0.57189,-0.78851 0.68551,-1.783245 0,-2.46875 l -6.25,-7.09375 c -0.63163,-0.76064 -0.62292,-1.706493 -0.25,-2.375 2.10875,-3.623292 3.77177,-7.544146 4.875,-11.6875 0.27531,-0.634683 0.8514,-1.20088 1.71875,-1.28125 l 9.4375,-0.59375 c 0.96945,0 1.59682,-0.788054 1.75,-1.75 0.45108,-3.249232 0.60772,-5.351147 0.625,-8.625 -0.0173,-3.273853 -0.17392,-5.375768 -0.625,-8.625 -0.15318,-0.96195 -0.78055,-1.75 -1.75,-1.75 l -9.4375,-0.59375 c -0.73836,-0.06842 -1.27654,-0.487159 -1.59375,-1 -0.006,-0.02192 -0.0256,-0.04059 -0.0312,-0.0625 -1.13014,-4.376187 -3.15121,-8.364911 -5.125,-12.3125 l -0.0625,-0.125 c -0.26745,-0.5349 -0.005,-1.27327 0.46875,-1.84375 l 6.25,-7.09375 c 0.68551,-0.68551 0.57188,-1.68023 0,-2.46875 -1.97859,-2.61652 -3.35351,-4.23532 -5.65625,-6.5625 -2.32718,-2.30275 -3.94598,-3.67766 -6.5625,-5.65625 -0.78852,-0.57188 -1.78324,-0.68551 -2.46875,0 l -7.093746,6.25 c -0.69538,0.57744 -1.53595,0.59443 -2.1875,0.3125 -3.60207,-2.0904 -7.50816,-3.70733 -11.625,-4.8125 -0.0219,-0.0062 -0.04067,-0.02425 -0.0625,-0.03125 -0.71211,-0.22817 -1.38024,-0.85731 -1.46875,-1.8125 l -0.59375,-9.4374999 c 0,-0.96945 -0.78805,-1.59682 -1.75,-1.75 -3.24923,-0.45108 -5.35115,-0.60772 -8.625,-0.625 z m 0,43.9999999 c 8.832,-10e-7 16,7.168 16,16 0,8.832 -7.168,16 -16,16 -8.832,0 -16,-7.168 -16,-16 0,-8.832001 7.168,-16 16,-16 z"
       id="path5085"
       sodipodi:nodetypes="ccccssccccccccsccscccccccccccccccccccccccccccccccccccccccccccccccssssccccccccsscccccsssc"
       inkscape:connector-curvature="0" />
    <path
       transform="matrix(0.79763164,0,0,0.79763164,9.7195601,11.112216)"
       sodipodi:nodetypes="ccccssccccccccsccscccccccccccccccccccccccccccccccccccccccccccccccssssccccccccsscccccsssc"
       id="path5139"
       d="m 68.01356,5.2504801 c -3.27385,0.01728 -5.37577,0.17392 -8.625,0.625 -0.96195,0.15318 -1.75,0.78055 -1.75,1.75 L 57.04481,17.06298 c -0.08851,0.95519 -0.75664,1.58433 -1.46875,1.8125 -0.02183,0.007 -0.0406,0.02503 -0.0625,0.03125 -4.11684,1.10517 -8.02293,2.7221 -11.625,4.8125 -0.65155,0.28193 -1.49213,0.26494 -2.1875,-0.3125 l -7.09375,-6.25 c -0.6855,-0.6855 -1.68023,-0.57188 -2.46875,0 -2.61651,1.97859 -4.23532,3.3535 -6.5625,5.65625 -2.30274,2.32718 -3.67766,3.94598 -5.65625,6.5625 -0.57188,0.78852 -0.6855,1.78325 0,2.46875 l 6.25,7.09375 c 0.47372,0.57048 0.7362,1.30885 0.46875,1.84375 l -0.0625,0.125 c -2.24552,3.7996 -3.99486,7.936315 -5.125,12.312505 -0.01184,0.02064 -0.01867,0.04216 -0.03125,0.0625 -0.31721,0.512841 -0.85539,0.931584 -1.59375,1 l -9.4375,0.59375 c -0.9694401,0 -1.5968101,0.78805 -1.7500001,1.75 -0.45108,3.249232 -0.60772,5.351147 -0.625,8.625 0.01728,3.273853 0.17392,5.375768 0.625,8.625 0.15319,0.961946 0.78056,1.75 1.7500001,1.75 l 9.4375,0.59375 c 0.86735,0.08037 1.44344,0.646567 1.71875,1.28125 1.10323,4.143354 2.76625,8.064208 4.875,11.6875 0.37292,0.668507 0.38163,1.614364 -0.25,2.375 l -6.25,7.09375 c -0.6855,0.685496 -0.57188,1.680225 0,2.468755 1.97859,2.61651 3.35351,4.23531 5.65625,6.5625 2.32718,2.30274 3.94598,3.67766 6.5625,5.65625 0.78852,0.57188 1.78325,0.6855 2.46875,0 l 7.09375,-6.25 c 0.76064,-0.63163 1.70649,-0.62292 2.375,-0.25 l 0.09375,-0.0937 c 3.52766,2.01717 7.32819,3.60952 11.34375,4.6875 l 0,0.15625 c 0.7364,0.20901 1.44003,0.85927 1.53125,1.84375 l 0.59375,9.4375 c 0,0.96944 0.78805,1.59681 1.75,1.75 3.24923,0.45108 5.35115,0.60772 8.625,0.625 3.27385,-0.0173 5.37577,-0.17392 8.625,-0.625 0.96195,-0.15319 1.75,-0.78056 1.75,-1.75 l 0.59375,-9.4375 c 0.09122,-0.98448 0.79485,-1.63474 1.53125,-1.84375 l 0,-0.15625 c 4.01556,-1.07798 7.8161,-2.67033 11.34375,-4.6875 l 0.09375,0.0937 c 0.66851,-0.37292 1.61436,-0.38163 2.375,0.25 l 7.09375,6.25 c 0.6855,0.68551 1.68024,0.57189 2.46875,0 2.61651,-1.97859 4.23531,-3.35351 6.5625,-5.65625 2.30274,-2.32719 3.67766,-3.94599 5.65625,-6.5625 0.57189,-0.78852 0.68551,-1.78325 0,-2.468755 l -6.25,-7.09375 c -0.63163,-0.76064 -0.62292,-1.706493 -0.25,-2.375 2.10875,-3.623292 3.77177,-7.544146 4.875,-11.6875 0.27531,-0.634683 0.8514,-1.20088 1.71875,-1.28125 l 9.4375,-0.59375 c 0.96945,0 1.59682,-0.788054 1.75,-1.75 0.45108,-3.249232 0.60772,-5.351147 0.625,-8.625 -0.0173,-3.273853 -0.17392,-5.375768 -0.625,-8.625 -0.15318,-0.96195 -0.78055,-1.75 -1.75,-1.75 l -9.4375,-0.59375 c -0.73836,-0.06842 -1.27654,-0.487159 -1.59375,-1 -0.006,-0.02192 -0.0256,-0.04059 -0.0312,-0.0625 -1.13014,-4.37619 -3.15121,-8.36491 -5.125,-12.312505 l -0.0625,-0.125 c -0.26745,-0.5349 -0.005,-1.27327 0.46875,-1.84375 l 6.25,-7.09375 c 0.68551,-0.68551 0.57188,-1.68023 0,-2.46875 -1.97859,-2.61652 -3.35351,-4.23532 -5.65625,-6.5625 -2.32718,-2.30275 -3.94598,-3.67766 -6.5625,-5.65625 -0.78852,-0.57188 -1.78324,-0.68551 -2.46875,0 l -7.09375,6.25 c -0.69538,0.57744 -1.53595,0.59443 -2.1875,0.3125 -3.60207,-2.0904 -7.50816,-3.70733 -11.625,-4.8125 -0.0219,-0.0062 -0.04067,-0.02425 -0.0625,-0.03125 -0.71211,-0.22817 -1.38024,-0.85731 -1.46875,-1.8125 l -0.5938,-9.4374999 c 0,-0.96945 -0.78805,-1.59682 -1.75,-1.75 -3.24923,-0.45108 -5.35115,-0.60772 -8.625,-0.625 z m 0,44.0000049 c 8.832,0 16,7.168 16,16 0,8.832 -7.168,16 -16,16 -8.832,0 -16,-7.168 -16,-16 0,-8.832001 7.168,-16 16,-16 z"
       style="fill:none;stroke:url(#linearGradient3927);stroke-width:1;stroke-linecap:round;stroke-linejoin:round;stroke-miterlimit:4;stroke-opacity:1;stroke-dasharray:none;stroke-dashoffset:1.08779998;filter:url(#filter5162)"
       mask="none"
       inkscape:connector-curvature="0" />
    <path
       transform="matrix(0.79763164,0,0,0.79763164,12.945368,12.136032)"
       inkscape:connector-curvature="0"
       sodipodi:nodetypes="cssssss"
       id="path5211"
       d="m 55.234189,4.1094074 c 4.558866,-0.4362458 12.192813,-0.6029442 16.943753,-0.035746 1.905751,0.2275209 2.537988,2.8775783 2.144779,7.3637406 -0.02725,0.310949 -0.571941,-5.9606978 -2.502242,-6.041127 -4.670803,-0.1946168 -11.680294,-0.4665162 -16.228827,0 -1.04558,0.107239 -1.961535,2.192676 -1.966047,1.8588084 -0.01787,-1.3941063 -0.24615,-2.968193 1.608584,-3.1456757 z"
       style="fill:url(#linearGradient5219);fill-opacity:1;fill-rule:evenodd;stroke:none;filter:url(#filter5257)" />
    <path
       transform="matrix(0.71784375,0.34773055,-0.34773055,0.71784375,19.850825,-6.8530892)"
       d="m 55.962085,6.8499207 a 1.2890996,2.4518168 0 1 1 -2.578199,0 1.2890996,2.4518168 0 1 1 2.578199,0 z"
       sodipodi:ry="2.4518168"
       sodipodi:rx="1.2890996"
       sodipodi:cy="6.8499207"
       sodipodi:cx="54.672985"
       id="path5245"
       style="fill:url(#radialGradient5253);fill-opacity:1;stroke:none"
       sodipodi:type="arc" />
    <path
       sodipodi:type="arc"
       style="fill:url(#radialGradient5263);fill-opacity:1;stroke:none"
       id="path5261"
       sodipodi:cx="54.672985"
       sodipodi:cy="6.8499207"
       sodipodi:rx="1.2890996"
       sodipodi:ry="2.4518168"
       d="m 55.962085,6.8499207 a 1.2890996,2.4518168 0 1 1 -2.578199,0 1.2890996,2.4518168 0 1 1 2.578199,0 z"
       transform="matrix(-0.71784375,0.34773055,0.34773055,0.71784375,107.93514,-6.8530892)" />
    <g
       transform="matrix(0.79763164,0,0,0.79763164,12.945368,12.136032)"
       id="g5317">
      <path
         inkscape:connector-curvature="0"
         style="fill:url(#linearGradient5273);fill-opacity:1;fill-rule:evenodd;stroke:none;filter:url(#filter5309)"
         d="m 51.361769,18.300158 c -4.047779,1.23811 -7.859062,2.709995 -11.526066,4.900041 -0.996978,0.363561 -1.596318,0.0034 -2.42654,-0.505529 l -6.875198,-6.113311 c -0.433314,-0.358221 -1.501514,-0.924638 -2.325434,-0.202212 -4.571806,3.959678 -8.215706,8.204865 -12.233807,12.334913 l 1.489849,-0.788946 c 3.57235,-3.458456 7.011649,-6.961263 10.845064,-10.332697 0.569939,-0.472074 1.422561,-0.290854 1.921011,0.202212 l 6.584146,5.80386 c 1.006037,0.983671 2.290425,1.379466 3.627544,0.916086 3.64482,-2.350169 7.47141,-3.979336 11.497506,-5.566955 0.845439,-0.348573 1.515884,-1.700121 1.402689,-2.807484 -0.117354,0.714424 -0.999363,1.846998 -1.980764,2.160022 z"
         id="path5265"
         sodipodi:nodetypes="cccccccccccccc" />
      <path
         transform="matrix(0.2034271,1.2369315,-0.9790901,0.2569992,24.508092,-52.470535)"
         d="m 55.962085,6.8499207 c 0,1.3541011 -0.57715,2.4518168 -1.2891,2.4518168 -0.71195,0 -1.289099,-1.0977157 -1.289099,-2.4518168 0,-1.354101 0.577149,-2.4518167 1.289099,-2.4518167 0.71195,0 1.2891,1.0977157 1.2891,2.4518167 z"
         sodipodi:ry="2.4518168"
         sodipodi:rx="1.2890996"
         sodipodi:cy="6.8499207"
         sodipodi:cx="54.672985"
         id="path5313"
         style="fill:url(#radialGradient5315);fill-opacity:1;stroke:none"
         sodipodi:type="arc" />
    </g>
    <g
       transform="matrix(-0.79763164,0,0,0.79763164,115.34178,12.136032)"
       id="g5331">
      <path
         inkscape:connector-curvature="0"
         sodipodi:nodetypes="cccccccccccccc"
         id="path5333"
         d="m 51.361769,18.300158 c -4.047779,1.23811 -7.859062,2.709995 -11.526066,4.900041 -0.996978,0.363561 -1.167362,-0.497014 -1.997584,-1.005977 l -6.875198,-6.113311 c -0.433314,-0.358221 -1.93047,-0.42419 -2.75439,0.298236 -5.213647,3.317837 -8.713911,7.70666 -12.233807,12.334913 l 1.489849,-0.788946 c 2.483558,-2.864569 6.003973,-6.411621 10.845064,-10.332697 0.569939,-0.472074 1.851517,-0.791302 2.349967,-0.298236 l 6.584146,5.80386 c 1.006037,0.983671 1.861469,1.879914 3.198588,1.416534 3.64482,-2.350169 7.47141,-3.979336 11.497506,-5.566955 0.845439,-0.348573 1.515884,-1.700121 1.402689,-2.807484 -0.117354,0.714424 -0.999363,1.846998 -1.980764,2.160022 z"
         style="fill:url(#linearGradient5337);fill-opacity:1;fill-rule:evenodd;stroke:none;filter:url(#filter5309)" />
      <path
         sodipodi:type="arc"
         style="fill:url(#radialGradient5339);fill-opacity:1;stroke:none"
         id="path5335"
         sodipodi:cx="54.672985"
         sodipodi:cy="6.8499207"
         sodipodi:rx="1.2890996"
         sodipodi:ry="2.4518168"
         d="m 55.962085,6.8499207 c 0,1.3541011 -0.57715,2.4518168 -1.2891,2.4518168 -0.71195,0 -1.289099,-1.0977157 -1.289099,-2.4518168 0,-1.354101 0.577149,-2.4518167 1.289099,-2.4518167 0.71195,0 1.2891,1.0977157 1.2891,2.4518167 z"
         transform="matrix(0.2034271,1.2369315,-0.9790901,0.2569992,24.508092,-52.470535)" />
    </g>
    <path
       inkscape:transform-center-y="0.48387162"
       inkscape:transform-center-x="0.5645205"
       transform="matrix(-0.79339646,-0.38384364,-0.28511391,0.76675803,147.20724,51.841472)"
       d="m 55.962085,6.8499207 a 1.2890996,2.4518168 0 1 1 -2.578199,0 1.2890996,2.4518168 0 1 1 2.578199,0 z"
       sodipodi:ry="2.4518168"
       sodipodi:rx="1.2890996"
       sodipodi:cy="6.8499207"
       sodipodi:cx="54.672985"
       id="path5341"
       style="opacity:0.31970257;fill:url(#radialGradient5343);fill-opacity:1;stroke:none;filter:url(#filter5505)"
       sodipodi:type="arc" />
    <path
       sodipodi:type="arc"
       style="opacity:0.31970257;fill:url(#radialGradient5511);fill-opacity:1;stroke:none;filter:url(#filter5505)"
       id="path5509"
       sodipodi:cx="54.672985"
       sodipodi:cy="6.8499207"
       sodipodi:rx="1.2890996"
       sodipodi:ry="2.4518168"
       d="m 55.962085,6.8499207 a 1.2890996,2.4518168 0 1 1 -2.578199,0 1.2890996,2.4518168 0 1 1 2.578199,0 z"
       transform="matrix(0.79339646,-0.38384364,0.28511391,0.76675803,-18.91515,52.083408)"
       inkscape:transform-center-x="-0.56451673"
       inkscape:transform-center-y="0.48387158" />
    <path
       transform="matrix(0.79763164,0,0,0.79763164,12.945368,12.136032)"
       inkscape:connector-curvature="0"
       sodipodi:nodetypes="cssssccscsc"
       id="path5513"
       d="m 109.72078,50.196512 c 0.18834,0.736645 -0.025,2.115067 0.47148,3.244939 0.29048,0.661018 0.6951,1.085368 1.22638,1.105152 4.78718,0.178262 6.94699,0.134513 10.11059,0.353871 0.47135,0.03268 1.05834,0.325925 1.28861,1.240743 0.41489,1.648244 0.35059,4.987561 0.78405,6.569684 0.74071,2.835371 0.2963,-4.805472 -0.0506,-7.102686 -0.28228,-1.58603 -0.97024,-2.280608 -1.8199,-2.325435 -3.37109,-0.177853 -6.74744,-0.06461 -10.4139,-0.202211 -0.25396,0.03372 -0.52901,-0.263847 -0.78145,-0.694049 -0.45009,-0.767054 -0.41721,-1.848547 -0.81531,-2.190008 z"
       style="fill:url(#linearGradient5521);fill-opacity:1;fill-rule:evenodd;stroke:none;filter:url(#filter5581)" />
    <path
       inkscape:connector-curvature="0"
       transform="matrix(-0.79763164,0,0,0.79763164,115.17802,12.136032)"
       style="fill:url(#linearGradient5587);fill-opacity:1;fill-rule:evenodd;stroke:none;filter:url(#filter5581)"
       d="m 109.72078,50.196512 c 0.18834,0.736645 -0.025,2.115067 0.47148,3.244939 0.29048,0.661018 0.6951,1.085368 1.22638,1.105152 4.78718,0.178262 6.94699,0.134513 10.11059,0.353871 0.47135,0.03268 1.05834,0.325925 1.28861,1.240743 0.41489,1.648244 0.35059,4.987561 0.78405,6.569684 0.74071,2.835371 0.2963,-4.805472 -0.0506,-7.102686 -0.28228,-1.58603 -0.97024,-2.280608 -1.8199,-2.325435 -3.37109,-0.177853 -6.74744,-0.06461 -10.4139,-0.202211 -0.25396,0.03372 -0.52901,-0.263847 -0.78145,-0.694049 -0.45009,-0.767054 -0.41721,-1.848547 -0.81531,-2.190008 z"
       id="path5585"
       sodipodi:nodetypes="cssssccscsc" />
    <path
       transform="matrix(0.79763164,0,0,0.79763164,12.945368,12.136032)"
       inkscape:connector-curvature="0"
       id="path5589"
       d="m 48.310016,64.191133 c -0.0047,0.158737 -0.04717,0.311795 -0.04717,0.471676 0,8.676524 7.077434,15.70679 15.753958,15.70679 8.676524,0 15.706795,-7.030263 15.70679,-15.70679 0,-0.159881 -0.04242,-0.312939 -0.04717,-0.471676 -0.228367,8.47772 -7.127084,15.282283 -15.659622,15.282283 -8.53254,0 -15.478418,-6.804563 -15.70679,-15.282283 z"
       style="opacity:0.87360595;fill:url(#linearGradient5886);fill-opacity:1;stroke:none;filter:url(#filter5876)" />
    <path
       transform="matrix(0.79763164,0,0,0.79763164,12.945368,12.136032)"
       inkscape:connector-curvature="0"
       id="path5596"
       d="m 79.676428,63.990452 c 0.0047,-0.158737 0.04717,-0.311795 0.04717,-0.471676 0,-8.676524 -7.077434,-15.70679 -15.753958,-15.70679 -8.676524,0 -15.706795,7.030263 -15.70679,15.70679 0,0.159881 0.04242,0.312939 0.04717,0.471676 0.228367,-8.47772 7.127084,-15.282283 15.659622,-15.282283 8.53254,0 15.478418,6.804563 15.70679,15.282283 z"
       style="opacity:0.87360595;fill:#565656;fill-opacity:1;stroke:none;filter:url(#filter5718)" />
    <path
       transform="matrix(0.79763164,0,0,0.79763164,12.945368,12.136032)"
       inkscape:connector-curvature="0"
       sodipodi:nodetypes="cssscsc"
       style="opacity:0.87360595;fill:#ffffff;fill-opacity:1;stroke:none;filter:url(#filter5836)"
       d="m 80.264493,64.297087 c 0.0049,-0.164689 0.04894,-0.323486 0.04894,-0.489362 0,-9.001863 -7.342812,-16.295739 -16.344675,-16.295739 -9.001863,0 -16.295744,7.293873 -16.295739,16.295739 0,0.165876 0.04401,0.324673 0.04894,0.489362 0.23693,-8.795604 7.394325,-16.270313 16.246803,-16.270313 8.85248,0 16.058803,7.474709 16.295739,16.270313 z"
       id="path5722" />
    <path
       transform="matrix(0.79763164,0,0,0.79763164,12.945368,12.136032)"
       inkscape:connector-curvature="0"
       sodipodi:nodetypes="cssscsc"
       style="opacity:0.34572491;fill:url(#linearGradient3118);fill-opacity:1;stroke:none;filter:url(#filter5876)"
       d="m 48.310016,64.191133 c -0.0047,0.158737 -0.04717,0.311795 -0.04717,0.471676 0,8.676524 7.077434,16.70679 15.753958,16.70679 8.676524,0 15.706795,-8.030263 15.70679,-16.70679 0,-0.159881 -0.04242,-0.312939 -0.04717,-0.471676 -0.228367,8.47772 -7.127084,15.282283 -15.659622,15.282283 -8.53254,0 -15.478418,-6.804563 -15.70679,-15.282283 z"
       id="path5888" />
    <path
       transform="matrix(0.79763164,0,0,0.79763164,12.945368,12.136032)"
       inkscape:connector-curvature="0"
       sodipodi:nodetypes="ccccccc"
       id="path5890"
       d="m 112.31492,97.901603 c 0.0523,0.557603 -0.12652,1.038158 -0.35746,1.501345 l -3.36016,4.361052 3.07419,-4.361052 c -0.13497,-0.516373 -0.19007,-1.072681 -0.50045,-1.501345 -1.78571,-2.200652 -4.06047,-4.319796 -5.07598,-6.648814 l 6.21986,6.648814 z"
       style="fill:#ffffff;fill-opacity:1;fill-rule:evenodd;stroke:none;filter:url(#filter5960)" />
    <path
       inkscape:connector-curvature="0"
       transform="matrix(-0.79763164,0,0,0.79763164,115.37653,12.136032)"
       style="fill:#ffffff;fill-opacity:1;fill-rule:evenodd;stroke:none;filter:url(#filter5960)"
       d="m 112.31492,97.901603 c 0.0523,0.557603 -0.12652,1.038158 -0.35746,1.501345 l -3.36016,4.361052 3.07419,-4.361052 c -0.13497,-0.516373 -0.19007,-1.072681 -0.50045,-1.501345 -1.78571,-2.200652 -4.06047,-4.319796 -5.07598,-6.648814 l 6.21986,6.648814 z"
       id="path5964"
       sodipodi:nodetypes="ccccccc" />
  </g>
</svg>
